PathFileType	4	(X/Y/Z)	Kaydara																																																																																																																																																																																																																												
DataRate	CameraRate	NumFrames	NumMarkers	Units	OrigDataRate	OrigDataStartFrame	OrigNumFrames																																																																																																																																																																																																																								
60	60	4	74	mm	60	1621	181																																																																																																																																																																																																																								
Frame#	Time	N_lasi			N_rasi			N_rpsi			N_lpsi			N_fneck			N_bneck			N_fhead			N_rhead			N_lhead			N_rshld			N_relbtop			N_relbext			N_relblow			N_rwrext			N_rwrtop			N_rwrlow			N_lshld			N_lelblow			N_lelbtop			N_lwrext			N_lwrtop			N_lwrlow			N_rtopleg			N_ltopleg			N_rkneefr			N_rkneebk			N_rkneeis			N_lkneefr			N_lknssbk			N_lkneeis			N_rankfr			N_rankis			N_rankbk			N_lankfr			N_lankbk			N_lankis			D_lasi			D_rasi			D_lpsi			D_fneck			D_bneck			D_fhead			D_rhead			D_lhead			D_rshld			D_relbtop			D_relbext			D_relblow			D_rwrext			D_rwrtop			D_rwrlow			D_lshld			D_lelbext			D_lelblow			D_lelbtop			D_lwrext			D_lwrtop			D_lwrlow			D_rtopleg			D_ltopleg			D_rkneefr			D_rkneebk			D_rkneeis			D_lkneefr			D_lknssbk			D_lkneeis			D_rankfr			D_rankis			D_rankbk			D_lankfr			D_lankbk			D_lankis			D_rpsi			N_lelbext		
		X1	Y1	Z1	X2	Y2	Z2	X3	Y3	Z3	X4	Y4	Z4	X5	Y5	Z5	X6	Y6	Z6	X7	Y7	Z7	X8	Y8	Z8	X9	Y9	Z9	X10	Y10	Z10	X11	Y11	Z11	X12	Y12	Z12	X13	Y13	Z13	X14	Y14	Z14	X15	Y15	Z15	X16	Y16	Z16	X17	Y17	Z17	X18	Y18	Z18	X19	Y19	Z19	X20	Y20	Z20	X21	Y21	Z21	X22	Y22	Z22	X23	Y23	Z23	X24	Y24	Z24	X25	Y25	Z25	X26	Y26	Z26	X27	Y27	Z27	X28	Y28	Z28	X29	Y29	Z29	X30	Y30	Z30	X31	Y31	Z31	X32	Y32	Z32	X33	Y33	Z33	X34	Y34	Z34	X35	Y35	Z35	X36	Y36	Z36	X37	Y37	Z37	X38	Y38	Z38	X39	Y39	Z39	X40	Y40	Z40	X41	Y41	Z41	X42	Y42	Z42	X43	Y43	Z43	X44	Y44	Z44	X45	Y45	Z45	X46	Y46	Z46	X47	Y47	Z47	X48	Y48	Z48	X49	Y49	Z49	X50	Y50	Z50	X51	Y51	Z51	X52	Y52	Z52	X53	Y53	Z53	X54	Y54	Z54	X55	Y55	Z55	X56	Y56	Z56	X57	Y57	Z57	X58	Y58	Z58	X59	Y59	Z59	X60	Y60	Z60	X61	Y61	Z61	X62	Y62	Z62	X63	Y63	Z63	X64	Y64	Z64	X65	Y65	Z65	X66	Y66	Z66	X67	Y67	Z67	X68	Y68	Z68	X69	Y69	Z69	X70	Y70	Z70	X71	Y71	Z71	X72	Y72	Z72	X73	Y73	Z73	X74	Y74	Z74
																																																																																																																																																																																																																															
1	27	-531.49433	1238.13843	-82.22362	-504.02569	1257.35519	-311.66836	-237.61158	1226.30257	-349.43264	-272.77431	1222.05833	-1.83585	-402.77431	1612.05833	-180.83585	-234.82349	1662.98721	-177.98851	-422.80067	1810.46066	-196.07334	-231.88416	1764.13864	-246.99099	-284.9338	1778.76953	-100.46262	-241.19635	1648.76282	-349.41917	-277.66869	1662.93137	-616.11588	-363.66806	1628.22144	-613.11222	-333.05763	1721.63696	-573.48267	-362.13291	1817.9953	-899.25934	-405.3701	1837.40524	-884.73213	-437.54818	1802.38876	-877.14935	-259.76149	1605.11642	23.38285	-273.08468	1576.80344	277.03644	-289.03299	1496.19308	306.31649	-384.54647	1811.86569	401.99947	-342.83012	1826.10886	419.72881	-315.81963	1822.90009	371.98185	-403.79074	1053.63831	-443.16448	-374.05048	1015.42732	47.61069	-431.08173	562.22939	-258.32405	-324.14707	578.62137	-325.48267	-369.5631	564.79229	-164.82615	-382.0203	539.74888	-99.00143	-256.03804	555.6995	-39.57394	-257.47698	547.32899	-188.99046	-296.85871	139.51184	-270.54012	-299.00093	153.97868	-190.60032	-217.1138	141.59964	-215.2857	-332.70634	192.62148	-118.62474	-259.72557	185.3644	-75.86645	-295.72557	164.3644	-159.86645	-458.73539	1038.13789	1738.66684	-420.08862	1056.60835	1450.70374	-259.22663	1131.04546	1745.6601	-434.70844	1565.24048	1593.98193	-299.65868	1588.71124	1604.06494	-446.17916	1796.14365	1594.99695	-296.53652	1716.64505	1522.72812	-308.57216	1717.68494	1676.64673	-375.2449	1489.85947	1394.51202	-269.77995	1160.34714	1371.74103	-330.71854	1139.14474	1430.90683	-350.64808	1166.30585	1338.38257	-323.08582	914.88503	1352.34955	-378.31123	913.69476	1334.8381	-392.2279	927.44789	1385.80078	-395.96706	1504.02618	1826.48895	-339.32178	1161.79901	1789.97421	-357.00066	1196.0527	1877.0787	-281.00065	1182.69669	1851.50818	-332.26357	936.66725	1875.95596	-375.83107	938.95874	1874.8967	-385.60516	947.37366	1825.82947	-322.56863	1003.32153	1408.83636	-319.74804	1008.95309	1805.46371	-377.21565	455.49992	1449.35608	-277.35586	490.71327	1421.94016	-285.43341	458.43025	1542.17148	-361.50974	448.38657	1770.96375	-249.04493	486.22463	1787.14127	-320.4953	444.03332	1679.49326	-324.7179	130.07643	1417.75742	-295.52521	126.79473	1482.77084	-244.4853	128.21681	1417.92419	-324.30523	134.74254	1791.92749	-251.61182	125.05871	1806.15128	-294.67945	124.11844	1732.8331	-226.76611	1145.8371	1527.49557	-363.09509	1536.89575	281.42963
2	27.017	-531.3615	1237.95876	-82.36199	-503.96385	1257.3053	-311.80019	-237.53607	1226.34354	-349.43066	-272.74029	1222.08458	-1.85455	-402.74029	1612.08458	-180.85455	-234.91709	1663.10699	-177.94291	-422.90791	1810.56061	-196.12188	-232.02129	1764.08615	-246.90119	-285.49372	1778.75031	-100.12781	-241.31025	1648.87619	-349.32934	-277.16333	1663.0513	-616.19476	-363.40237	1628.11768	-613.11676	-333.15224	1721.65695	-573.49812	-362.98439	1818.18649	-899.39384	-405.30869	1837.26212	-884.80751	-437.44389	1802.25555	-877.28851	-259.89254	1605.13184	23.41789	-273.28054	1576.71661	277.08736	-289.10685	1496.07712	306.37028	-384.97375	1811.56311	402.06581	-343.21484	1825.95764	419.72187	-316.41214	1822.66495	371.96819	-403.61763	1053.6615	-443.28304	-374.01291	1015.38086	47.6164	-431.0667	562.26173	-258.35907	-324.0979	578.63518	-325.51262	-369.53892	564.82624	-164.87923	-381.84517	539.76135	-99.07328	-256.12091	555.68153	-39.5348	-257.46395	547.3391	-189.049	-296.78776	139.46703	-270.49936	-299.00461	153.98008	-190.6171	-217.11813	141.59554	-215.28088	-332.6984	192.64111	-118.62009	-259.72431	185.37409	-75.86904	-295.72431	164.37409	-159.86904	-458.66299	1038.09853	1738.71948	-419.97417	1056.57852	1450.81375	-259.14082	1131.02699	1745.63049	-434.65389	1565.17914	1594.16138	-299.67108	1588.71613	1604.07684	-446.15284	1796.07971	1595.14313	-296.47858	1716.63498	1522.95685	-308.53622	1717.66647	1676.79306	-375.24364	1489.69696	1394.69818	-269.48044	1160.25925	1371.61301	-330.42526	1139.15367	1430.80841	-350.42294	1166.27151	1338.28995	-322.90733	914.78653	1352.25266	-378.01983	913.63808	1334.70047	-392.08363	927.3735	1385.63934	-395.96306	1503.98651	1826.60141	-339.34322	1161.75964	1790.31647	-356.90514	1195.98183	1877.14569	-280.9786	1182.56447	1852.11105	-332.26494	936.53847	1875.98145	-375.6916	938.86925	1874.90829	-385.56244	947.36267	1825.74738	-322.71416	1003.28651	1408.91434	-319.72403	1008.89496	1805.40817	-377.27837	455.52315	1449.32358	-277.43519	490.72655	1421.8779	-285.55439	458.35121	1542.10175	-361.51848	448.38211	1770.97641	-249.05804	486.20632	1787.09656	-320.51674	444.04045	1679.47006	-324.76593	130.05457	1417.7774	-295.5127	126.80874	1482.82166	-244.52328	128.22131	1417.89032	-324.31114	134.71173	1791.88324	-251.64795	125.07257	1806.1084	-294.6607	124.09834	1732.81616	-226.68236	1145.79163	1527.44781	-363.21968	1536.70685	281.49179
3	27.033	-531.24725	1237.84027	-82.48363	-503.93719	1257.3175	-311.93327	-237.49672	1226.37215	-349.42307	-272.69907	1222.1151	-1.93808	-402.69907	1612.1151	-180.93808	-235.07898	1663.14163	-177.85048	-423.00323	1810.6778	-196.11498	-231.98975	1764.11072	-246.70595	-285.60553	1778.74359	-100.01801	-241.41863	1648.9856	-349.33006	-277.25414	1662.83096	-616.14384	-363.22895	1628.03436	-613.27374	-333.04066	1721.67542	-573.59703	-362.7853	1818.07449	-899.46129	-405.08541	1837.13608	-884.91783	-437.25819	1802.14676	-877.44553	-260.16409	1605.17227	23.48004	-273.4341	1576.60919	277.10606	-289.18726	1495.95276	306.39481	-385.38185	1811.25504	402.02057	-343.57944	1825.7991	419.67411	-316.8611	1822.48306	371.93153	-403.49339	1053.71841	-443.39661	-373.95332	1015.37224	47.64719	-431.07742	562.2776	-258.38539	-324.09996	578.63903	-325.52876	-369.51038	564.82685	-164.88928	-381.93481	539.75632	-99.0155	-255.93733	555.71678	-39.63654	-257.4337	547.35397	-189.09389	-296.79554	139.491	-270.53782	-299.00454	153.97295	-190.61172	-217.11374	141.60082	-215.28433	-332.68509	192.64784	-118.6356	-259.66461	185.39104	-75.89575	-295.66461	164.39104	-159.89575	-458.53237	1038.09402	1738.72253	-419.86561	1056.55357	1450.82886	-259.02803	1131.03592	1745.63202	-434.58561	1565.15259	1594.35501	-299.60209	1588.72391	1604.20181	-446.15196	1796.02707	1595.34775	-296.41827	1716.67099	1523.15598	-308.46628	1717.72369	1677.02209	-375.1239	1489.56985	1394.83948	-269.26611	1160.16533	1371.67038	-330.18337	1139.13742	1430.81879	-350.21534	1166.19293	1338.22891	-322.6215	914.70795	1352.01187	-377.76119	913.59062	1334.34036	-392.01668	927.35184	1385.34241	-395.90843	1503.92975	1826.71097	-339.4273	1161.82289	1790.32455	-356.95724	1196.06018	1876.875	-280.93391	1182.48825	1852.38297	-332.14245	936.4267	1876.0968	-375.65926	938.8591	1874.94873	-385.54619	947.39685	1825.75531	-322.85973	1003.2515	1408.99231	-319.55379	1008.91357	1805.41611	-377.39365	455.51392	1449.30679	-277.50124	490.68951	1421.82526	-285.58416	458.4148	1542.03644	-361.4938	448.38196	1771.02631	-249.04432	486.15688	1787.05673	-320.5344	444.02008	1679.51172	-324.79385	130.04364	1417.78687	-295.52418	126.80276	1482.80212	-244.52662	128.19195	1417.8949	-324.3008	134.71229	1791.88675	-251.6288	125.05389	1806.13785	-294.66982	124.08915	1732.81982	-226.51134	1145.75798	1527.40372	-363.37433	1536.41983	281.56927
4	27.05	-531.14586	1237.73842	-82.61317	-503.89641	1257.30484	-311.96838	-237.48873	1226.4119	-349.44427	-272.67496	1222.17949	-1.95946	-402.67496	1612.17949	-180.95946	-235.42521	1663.09509	-177.75351	-423.0917	1810.77835	-196.07374	-232.10659	1764.11469	-246.55596	-285.78068	1778.75565	-99.97025	-241.50826	1649.04861	-349.36211	-277.20213	1662.70172	-616.17764	-363.11543	1628.01422	-613.39455	-332.79324	1721.76208	-573.64555	-362.58076	1817.93076	-899.5507	-404.75098	1836.98227	-885.11093	-436.98654	1801.97968	-877.62405	-260.42782	1605.168	23.58855	-273.63853	1576.44592	277.16074	-289.34496	1495.82443	306.40066	-385.55141	1811.08276	402.04647	-343.87119	1825.64514	419.6666	-317.15206	1822.33734	371.88759	-403.39252	1053.74931	-443.39134	-373.73825	1015.336	47.66305	-431.09715	562.27116	-258.38856	-324.13448	578.63182	-325.53471	-369.42986	564.80492	-164.95716	-381.85841	539.7966	-99.01458	-255.9123	555.71125	-39.64041	-257.44308	547.30663	-189.13853	-296.81866	139.46554	-270.47556	-298.99023	153.96975	-190.60711	-217.09589	141.57891	-215.3019	-332.63577	192.67977	-118.59447	-259.64533	185.40455	-75.871	-295.64533	164.40455	-159.871	-458.40458	1038.06717	1738.73871	-419.78771	1056.51443	1450.90439	-258.91573	1131.01791	1745.64331	-434.43172	1565.18219	1594.50638	-299.46917	1588.69461	1604.32816	-446.20644	1795.93094	1595.61386	-296.36919	1716.7717	1523.35251	-308.32064	1717.76917	1677.24106	-374.87431	1489.49066	1394.98199	-269.07581	1160.09056	1371.76178	-329.93793	1139.15894	1430.8699	-349.97673	1166.17081	1338.21579	-322.34409	914.6946	1351.7099	-377.51102	913.62617	1334.04572	-391.89243	927.32178	1385.06271	-395.84534	1503.90915	1826.85562	-339.25213	1161.63528	1790.84671	-356.53027	1195.58563	1877.8479	-280.85007	1182.46315	1852.43973	-331.96568	936.37024	1876.24023	-375.54878	938.84392	1874.92233	-385.53108	947.41081	1825.74356	-323.00514	1003.21632	1409.07013	-319.35394	1008.92967	1805.44525	-377.45533	455.51643	1449.29337	-277.50704	490.67852	1421.8074	-285.67169	458.32104	1541.97784	-361.46751	448.37418	1770.97656	-248.99721	486.17493	1787.04834	-320.52372	443.99406	1679.4809	-324.76479	130.03539	1417.75253	-295.5407	126.79971	1482.77985	-244.52074	128.18254	1417.89093	-324.28272	134.68192	1791.90109	-251.60614	125.03871	1806.10535	-294.66549	124.09531	1732.81738	-226.38441	1145.7412	1527.40311	-363.60271	1536.15891	281.60015
